<?xml version="1.0" encoding="UTF-8"?>
<svg version="1.1" xmlns="http://www.w3.org/2000/svg" width="74" height="76">
<path d="M0 0 C0.99 0.66 1.98 1.32 3 2 C1.68822142 4.9262753 0.24710766 6.75289234 -2 9 C-2.309375 9.66 -2.61875 10.32 -2.9375 11 C-4.22217969 13.4182206 -5.7449403 14.49662686 -8 16 C-7.31164063 16.51046875 -7.31164063 16.51046875 -6.609375 17.03125 C-0.91546025 21.52896417 1.72842728 26.18528185 4 33 C4.67952008 44.01606598 4.48427222 52.04242587 -2.6875 60.75 C-7.66834769 66.08005842 -13.61809733 69.6564318 -21.0390625 70.23828125 C-30.34234267 70.4308328 -36.31375306 69.12416463 -44 64 C-42.96905133 61.42262834 -42.4891374 60.23715753 -39.9375 59 C-37.81005123 58.19022378 -37.81005123 58.19022378 -37.375 56.0625 C-37.25125 55.381875 -37.1275 54.70125 -37 54 C-36.34 53.01 -35.68 52.02 -35 51 C-34.34 51 -33.68 51 -33 51 C-33 50.34 -33 49.68 -33 49 C-33.556875 48.79375 -34.11375 48.5875 -34.6875 48.375 C-40.12894132 45.1395484 -43.08922261 39.90037855 -45 34 C-46.41599905 23.42940242 -45.25370001 14.86635691 -39 6 C-29.30039416 -5.91941613 -12.85523991 -6.57152189 0 0 Z M-21 4 C-21 4.33 -21 4.66 -21 5 C-17.37 5 -13.74 5 -10 5 C-10 4.67 -10 4.34 -10 4 C-13.63 4 -17.26 4 -21 4 Z M-18 12 C-14 13 -14 13 -14 13 Z M-35 14 C-34 16 -34 16 -34 16 Z M-36 16 C-35 18 -35 18 -35 18 Z M-37 18 C-36 21 -36 21 -36 21 Z M-28 19 C-27 21 -27 21 -27 21 Z M-19.875 22.625 C-21.34524611 25.07967218 -21.34524611 25.07967218 -20.1875 28.25 C-19.795625 29.1575 -19.40375 30.065 -19 31 C-15.22471696 29.74157232 -14.89332955 28.37506571 -13 25 C-12.34 24.34 -11.68 23.68 -11 23 C-14.39546697 20.73635535 -16.55824738 19.75048106 -19.875 22.625 Z M-38 22 C-38 24.31 -38 26.62 -38 29 C-37.67 29 -37.34 29 -37 29 C-37 26.69 -37 24.38 -37 22 C-37.33 22 -37.66 22 -38 22 Z M-29 22 C-29 24.64 -29 27.28 -29 30 C-28.67 30 -28.34 30 -28 30 C-28 27.36 -28 24.72 -28 22 C-28.33 22 -28.66 22 -29 22 Z M-37 30 C-36 33 -36 33 -36 33 Z M-28 30 C-27 32 -27 32 -27 32 Z M-6 31 C-5 33 -5 33 -5 33 Z M-5 33 C-4 36 -4 36 -4 36 Z M-14 34 C-13 36 -13 36 -13 36 Z M-23 35 C-26.000533 38.07449747 -26.000533 38.07449747 -27 42 C-27.99 42.33 -28.98 42.66 -30 43 C-27.24443417 45.26646351 -27.24443417 45.26646351 -24.4375 44.875 C-21.9187187 44.20600604 -21.9187187 44.20600604 -20.5625 42.25 C-19.81255085 39.25020339 -20.64446275 37.7110745 -22 35 C-22.33 35 -22.66 35 -23 35 Z M-13 36 C-13 38.97 -13 41.94 -13 45 C-12.67 45 -12.34 45 -12 45 C-12 42.03 -12 39.06 -12 36 C-12.33 36 -12.66 36 -13 36 Z M-4 37 C-4 39.31 -4 41.62 -4 44 C-3.67 44 -3.34 44 -3 44 C-3 41.69 -3 39.38 -3 37 C-3.33 37 -3.66 37 -4 37 Z M-14 45 C-13 47 -13 47 -13 47 Z M-5 45 C-4 48 -4 48 -4 48 Z M-6 48 C-5 50 -5 50 -5 50 Z M-28 53 C-28 53.33 -28 53.66 -28 54 C-26.02 54 -24.04 54 -22 54 C-22 53.67 -22 53.34 -22 53 C-23.98 53 -25.96 53 -28 53 Z M-32 61 C-32 61.33 -32 61.66 -32 62 C-30.35 62 -28.7 62 -27 62 C-27 61.67 -27 61.34 -27 61 C-28.65 61 -30.3 61 -32 61 Z M-23 61 C-19 62 -19 62 -19 62 Z M-27 62 C-23 63 -23 63 -23 63 Z " fill="#E11E2D" transform="translate(53,5)"/>
<path d="M0 0 C0.99 0.66 1.98 1.32 3 2 C1.6975667 4.90542812 0.29113732 6.8092961 -2 9 C-3.093125 8.34 -4.18625 7.68 -5.3125 7 C-10.49587555 4.43124751 -15.31500397 4.14890321 -21 5 C-23.27563917 5.83465055 -25.25997284 6.79561954 -27.34375 8.02734375 C-29 9 -29 9 -32 10 C-33.11935073 11.64630193 -33.11935073 11.64630193 -34 14 C-34.26039062 14.59296875 -34.52078125 15.1859375 -34.7890625 15.796875 C-37.51738353 22.37544346 -37.77569428 27.3765046 -35.25 34.125 C-33.63554882 37.90742848 -31.83020352 40.96763908 -29 44 C-30.98 46.475 -30.98 46.475 -33 49 C-38.37534033 47.00913321 -41.15982264 42.67629589 -43.6171875 37.7734375 C-46.58107987 30.55530885 -46.21778097 21.86494313 -43.8984375 14.50390625 C-39.94383472 6.03428906 -35.35672874 1.17542864 -26.75 -2.375 C-17.06500604 -5.52825385 -9.01927627 -4.61060019 0 0 Z " fill="#FDD200" transform="translate(53,5)"/>
<path d="M0 0 C3.27589642 1.38977424 5.01422192 2.89879192 7.125 5.75 C7.62257812 6.40484375 8.12015625 7.0596875 8.6328125 7.734375 C13.24460339 15.37677133 12.99751483 24.8371361 11.60546875 33.4375 C9.57465414 39.93610675 4.45368057 45.76309657 -1.1953125 49.421875 C-9.17168802 53.48364556 -18.10415531 54.72541363 -26.81640625 52.17578125 C-30.1235724 50.71016726 -32.98786553 49.00808965 -36 47 C-35.05024762 44.62561905 -34.24013002 43.19724966 -32.25 41.5625 C-28.87105386 40.71776347 -27.06178425 42.44022312 -24 44 C-17.44632175 45.694064 -12.0829105 44.85766361 -6 42 C-0.90787621 38.83156742 1.65959324 34.57441803 3.75 29 C4.99080048 19.07359612 1.92344605 12.68447056 -4 5 C-2.68 3.35 -1.36 1.7 0 0 Z " fill="#FCC700" transform="translate(45,22)"/>
<path d="M0 0 C3.25813633 1.04725811 4.53606177 2.57016768 6.1875 5.4375 C9.25463017 11.46599722 10.18087932 16.82980904 8.31640625 23.4140625 C5.91478194 29.37327967 2.85222371 33.13930326 -3.0703125 36 C-9.99073151 38.70065132 -15.79317275 38.40650318 -22.5625 35.4375 C-23.366875 34.963125 -24.17125 34.48875 -25 34 C-24.38722388 31.03824877 -23.74627478 29.61941217 -22 27 C-20.5459375 27.5259375 -20.5459375 27.5259375 -19.0625 28.0625 C-14.5976338 29.31230028 -10.45942041 29.31945398 -6 28 C-2.85407195 25.44393346 -0.27764723 23.23483259 0.23828125 19.08203125 C0.4325665 13.14099293 -0.65606653 9.91140228 -4 5 C-2.68 3.35 -1.36 1.7 0 0 Z " fill="#284D9C" transform="translate(40,29)"/>
<path d="M0 0 C2.3125 1.6875 2.3125 1.6875 3.3125 4.6875 C1.875 6.875 1.875 6.875 0.3125 8.6875 C-0.7084375 8.4709375 -0.7084375 8.4709375 -1.75 8.25 C-2.719375 8.064375 -3.68875 7.87875 -4.6875 7.6875 C-5.821875 7.44 -6.95625 7.1925 -8.125 6.9375 C-13.00286399 6.59519375 -15.79210532 8.1188975 -19.5 11.1875 C-21.96397122 14.2998847 -22.00961586 17.76594049 -21.98828125 21.61328125 C-21.49216803 25.03452957 -19.82231546 27.01898068 -17.6875 29.6875 C-18.6875 31.6875 -19.6875 33.6875 -20.6875 35.6875 C-23.68898136 35.36591271 -24.66955792 34.70596979 -26.8125 32.5 C-30.52818675 26.92646987 -31.70173108 21.28000199 -30.6875 14.6875 C-28.32297714 7.59393143 -25.14406274 3.39404528 -18.6875 -0.3125 C-12.67721763 -2.31592746 -5.93217683 -2.11145277 0 0 Z " fill="#2857A4" transform="translate(46.6875,11.3125)"/>
<path d="M0 0 C3.47842253 0.05601325 4.34711316 0.15811271 7.1875 2.375 C7.661875 3.035 8.13625 3.695 8.625 4.375 C7.625 7.375 7.625 7.375 6.0625 8.5625 C1.73408859 10.0053038 -2.62678044 10.07428782 -6.875 8.375 C-7.37 8.045 -7.865 7.715 -8.375 7.375 C-6.54778172 2.41540753 -5.52877743 0.09184016 0 0 Z " fill="#C62026" transform="translate(28.375,48.625)"/>
<path d="M0 0 C4.95 0.99 9.9 1.98 15 3 C10.43452055 6.42410959 8.42259613 6.67782452 3 6 C0.5 5 0.5 5 -1 4 C-0.67 2.68 -0.34 1.36 0 0 Z " fill="#A52220" transform="translate(21,52)"/>
<path d="M0 0 C-1.24976756 3.65316671 -1.67098753 4.78065836 -5 7 C-5.66 5.68 -6.32 4.36 -7 3 C-3.375 0 -3.375 0 0 0 Z " fill="#AC2223" transform="translate(34,34)"/>
<path d="M0 0 C0.9590625 0.4640625 0.9590625 0.4640625 1.9375 0.9375 C5.92049104 2.31935403 9.81650849 2.6536543 14 3 C14 3.66 14 4.32 14 5 C12.24929483 4.88529863 10.49942464 4.75780972 8.75 4.625 C7.77546875 4.55539063 6.8009375 4.48578125 5.796875 4.4140625 C3.10366811 4.01534751 1.33036721 3.36492937 -1 2 C-0.67 1.34 -0.34 0.68 0 0 Z " fill="#B52126" transform="translate(23,50)"/>
<path d="M0 0 C0.66 1.32 1.32 2.64 2 4 C-0.31 5.32 -2.62 6.64 -5 8 C-4.45773019 4.20411134 -2.79872437 2.52788007 0 0 Z " fill="#D01F28" transform="translate(31,30)"/>
</svg>
